# Made in Blockbench 5.0.4
mtllib materials.mtl

o cylinder
v 1.3877787807814457e-17 -0.09375 1.3877787807814457e-17
v 1.3877787807814457e-17 0.09375 1.3877787807814457e-17
v 0.13397459621556132 -0.09375 0.5
v 0.13397459621556132 0.09375 0.5
v 0.36602540378443854 -0.09375 0.36602540378443854
v 0.36602540378443854 0.09375 0.36602540378443854
v 0.5 -0.09375 0.13397459621556132
v 0.5 0.09375 0.13397459621556132
v 0.5 -0.09375 -0.13397459621556132
v 0.5 0.09375 -0.13397459621556132
v 0.36602540378443854 -0.09375 -0.36602540378443854
v 0.36602540378443854 0.09375 -0.36602540378443854
v 0.13397459621556151 -0.09375 -0.4999999999999996
v 0.13397459621556151 0.09375 -0.4999999999999996
v -0.1339745962155611 -0.09375 -0.5
v -0.1339745962155611 0.09375 -0.5
v -0.36602540378443854 -0.09375 -0.36602540378443854
v -0.36602540378443854 0.09375 -0.36602540378443854
v -0.4999999999999996 -0.09375 -0.1339745962155612
v -0.4999999999999996 0.09375 -0.1339745962155612
v -0.5 -0.09375 0.1339745962155611
v -0.5 0.09375 0.1339745962155611
v -0.36602540378443854 -0.09375 0.36602540378443854
v -0.36602540378443854 0.09375 0.36602540378443854
v -0.13397459621556126 -0.09375 0.5
v -0.13397459621556126 0.09375 0.5
vt 0.18744756026885798 0.8144951516472785
vt 0.06265867518244404 0.623275738199493
vt 0.5006897240684128 0.5023040425335862
vt 0.8750000000000004 0.625
vt 0.9052500000000004 0.625
vt 0.9052500000000004 0.6875
vt 0.8750000000000004 0.6875
vt 0.9336445885425185 0.6263267171398404
vt 0.8095670106490416 0.8073515511602819
vt 0.5023752705799547 0.500815820163574
vt 0.3730714832657841 0.9380193860932159
vt 0.18473277482920958 0.8119624931356209
vt 0.501310476796758 0.5026508270625258
vt 0.6250000000000004 0.875
vt 0.6865000000000004 0.875
vt 0.6865000000000004 0.90625
vt 0.6250000000000004 0.90625
vt 0.8099270091934877 0.8081764004538234
vt 0.6276208256852625 0.9383346273384964
vt 0.5049146989310704 0.5025393241633753
vt 0.6225625000000002 0.9368124999999996
vt 0.37431250000000005 0.9368124999999995
vt 0.5031250000000002 0.5034169776119399
vt 0.37500000000000044 0.90625
vt 0.6240000000000004 0.90625
vt 0.6240000000000004 0.9375
vt 0.37500000000000044 0.9375
vt 0.6223125000000007 0.9370624999999996
vt 0.3745625 0.9370624999999996
vt 0.5031249999999999 0.4995624999999998
vt 0.8113971165009184 0.8129837893466088
vt 0.623177235835823 0.9361512896945036
vt 0.5047631814730794 0.5021352182697743
vt 0.31250000000000044 0.875
vt 0.37400000000000044 0.875
vt 0.37400000000000044 0.90625
vt 0.31250000000000044 0.90625
vt 0.37471718585320524 0.9363615156727495
vt 0.18527455711581992 0.8119468762173516
vt 0.5053729919227271 0.501199314401261
vt 0.9360738983763577 0.625386477493435
vt 0.8125814429980529 0.8125680203848703
vt 0.503181528397104 0.5038790341340191
vt 0.09375000000000044 0.628125
vt 0.12400000000000047 0.628125
vt 0.12400000000000047 0.6875
vt 0.09375000000000044 0.6875
vt 0.1880638656089754 0.8143314277410366
vt 0.06249941033893769 0.6231764473109354
vt 0.5024013994187967 0.502567057328386
vt 0.9360593905472638 0.3758187189054726
vt 0.9360593905472636 0.6248187189054727
vt 0.5029437189054726 0.5018812189054727
vt 0.06250000000000046 0.375
vt 0.09275000000000047 0.375
vt 0.09275000000000047 0.6249999999999998
vt 0.06250000000000046 0.6249999999999998
vt 0.06255192786069702 0.6250519278606966
vt 0.06255192786069702 0.3764269278606962
vt 0.5030836442786074 0.5007394278606967
vt 0.8137947829539157 0.18828063501472048
vt 0.9351880090139894 0.37627864685376966
vt 0.505372981037101 0.5014915040415555
vt 0.09375000000000044 0.3125
vt 0.12400000000000047 0.3125
vt 0.12400000000000047 0.375
vt 0.09375000000000044 0.375
vt 0.06368401613838164 0.37608685009423626
vt 0.1824928628279116 0.18553913165332514
vt 0.5043718605767351 0.5021025675990112
vt 0.6251167596214806 0.06520611235093987
vt 0.813813817041089 0.18822567805084933
vt 0.5035443130229287 0.5041268655846564
vt 0.31250000000000044 0.09375
vt 0.37400000000000044 0.09375
vt 0.37400000000000044 0.125
vt 0.31250000000000044 0.125
vt 0.1852610863304165 0.1849169218987481
vt 0.37652907933253416 0.06448189388466818
vt 0.5043849019566912 0.501915656724365
vt 0.37660416666666635 0.06309359452736252
vt 0.6254791666666671 0.06309359452736252
vt 0.5041666666666667 0.5026458333333328
vt 0.37500000000000044 0.0625
vt 0.6240000000000008 0.0625
vt 0.6240000000000006 0.09375
vt 0.37500000000000044 0.09375
vt 0.37781249999999983 0.06433302238805949
vt 0.6253125000000007 0.0643330223880596
vt 0.5031249999999998 0.5028125000000001
vt 0.18383775005953018 0.18477411140885136
vt 0.37574944347731976 0.06260683048914284
vt 0.5034628740827927 0.5028235579321918
vt 0.6250000000000004 0.09375
vt 0.6865000000000003 0.09375
vt 0.6865000000000011 0.12499999999999956
vt 0.6250000000000004 0.12499999999999933
vt 0.6218750000000003 0.06562499999999938
vt 0.8158603062672989 0.1880667342070912
vt 0.5036763958053072 0.5031250000000007
vt 0.06334215606367022 0.3746631162205065
vt 0.18302499407856188 0.18610210031865637
vt 0.5041815894007966 0.5018123018718801
vt 0.8750000000000004 0.3125
vt 0.9052500000000008 0.3125
vt 0.9052500000000006 0.375
vt 0.8750000000000004 0.37499999999999956
vt 0.8143788818130053 0.18619226123887556
vt 0.9348649080955871 0.376308395781479
vt 0.5036254807530254 0.5012868091698255
vt 0.06430876865671689 0.6236837686567164
vt 0.06430876865671686 0.37530876865671703
vt 0.5026949626865672 0.5026212686567169
vt 0.9062500000000004 0.375
vt 0.9365000000000006 0.375
vt 0.9365000000000008 0.625
vt 0.9062500000000004 0.625
vt 0.9346912313432838 0.3791800373134331
vt 0.9346912313432838 0.6275550373134333
vt 0.5025550373134338 0.5033675373134332
vn 0 -1 0
vn 0.5000000000000004 0 0.8660254037844385
vn 0 1 0
vn 0 -1 0
vn 0.8660254037844385 0 0.5000000000000004
vn 0 1 0
vn 0 -1 0
vn 1 0 0
vn 0 1 0
vn 0 -1 0
vn 0.8660254037844385 0 -0.5000000000000004
vn 0 1 0
vn 0 -1 0
vn 0.4999999999999996 0 -0.8660254037844388
vn 0 1 0
vn 0 -1 0
vn 1.4501930574718576e-15 0 -1
vn 0 1 0
vn 0 -1 0
vn -0.5000000000000001 0 -0.8660254037844388
vn 0 1 0
vn 0 -1 0
vn -0.8660254037844392 0 -0.4999999999999991
vn 0 1 0
vn 0 -1 0
vn -1 0 -1.4501930574718592e-15
vn 0 1 0
vn 0 -1 0
vn -0.8660254037844388 0 0.5000000000000001
vn 0 1 0
vn 0 -1 0
vn -0.5000000000000003 0 0.8660254037844385
vn 0 1 0
vn 0 -1 0
vn 0 0 1
vn 0 1 0
usemtl m_254dc592-8d64-5c34-7c27-c7ba2e364c16
f 5/1/1 3/2/1 1/3/1
f 3/4/2 5/5/2 6/6/2 4/7/2
f 4/8/3 6/9/3 2/10/3
f 7/11/4 5/12/4 1/13/4
f 5/14/5 7/15/5 8/16/5 6/17/5
f 6/18/6 8/19/6 2/20/6
f 9/21/7 7/22/7 1/23/7
f 7/24/8 9/25/8 10/26/8 8/27/8
f 8/28/9 10/29/9 2/30/9
f 11/31/10 9/32/10 1/33/10
f 9/34/11 11/35/11 12/36/11 10/37/11
f 10/38/12 12/39/12 2/40/12
f 13/41/13 11/42/13 1/43/13
f 11/44/14 13/45/14 14/46/14 12/47/14
f 12/48/15 14/49/15 2/50/15
f 15/51/16 13/52/16 1/53/16
f 13/54/17 15/55/17 16/56/17 14/57/17
f 14/58/18 16/59/18 2/60/18
f 17/61/19 15/62/19 1/63/19
f 15/64/20 17/65/20 18/66/20 16/67/20
f 16/68/21 18/69/21 2/70/21
f 19/71/22 17/72/22 1/73/22
f 17/74/23 19/75/23 20/76/23 18/77/23
f 18/78/24 20/79/24 2/80/24
f 21/81/25 19/82/25 1/83/25
f 19/84/26 21/85/26 22/86/26 20/87/26
f 20/88/27 22/89/27 2/90/27
f 23/91/28 21/92/28 1/93/28
f 21/94/29 23/95/29 24/96/29 22/97/29
f 22/98/30 24/99/30 2/100/30
f 25/101/31 23/102/31 1/103/31
f 23/104/32 25/105/32 26/106/32 24/107/32
f 24/108/33 26/109/33 2/110/33
f 3/111/34 25/112/34 1/113/34
f 25/114/35 3/115/35 4/116/35 26/117/35
f 26/118/36 4/119/36 2/120/36